<svg xmlns="http://www.w3.org/2000/svg" version="1.1" xmlns:xlink="http://www.w3.org/1999/xlink" width="512" height="512" x="0" y="0" viewBox="0 0 64 64" style="enable-background:new 0 0 512 512" xml:space="preserve" fillRule="evenodd" class=""><g><path fill="#a4bbdb" d="M51.791 24.617h-37a3 3 0 0 0-3 3v6h40z" opacity="1" data-original="#a4bbdb"></path><path fill="#8da3be" d="M11.791 28.303h40v1.863h-40z" opacity="1" data-original="#8da3be"></path><path fill="#a4bbdb" d="M51.791 23.696a3 3 0 0 0-3-3H36.153a3 3 0 0 0-2.842 2.04L32 26.617h19.791z" opacity="1" data-original="#a4bbdb"></path><path fill="#cadcf0" d="M54.279 34.234a4.002 4.002 0 0 0-3.953-4.617H13.674a4 4 0 0 0-3.953 4.617l3.75 24a4.001 4.001 0 0 0 3.953 3.383h29.152a4.001 4.001 0 0 0 3.953-3.383l3.75-24z" opacity="1" data-original="#cadcf0" class=""></path><path fill="#e9f3fc" d="m9.721 34.234.513 3.28c-.181-1.155.216-2.331.976-3.219a4 4 0 0 1 3.039-1.399h35.502c1.169 0 2.279.511 3.039 1.399s1.157 2.064.976 3.219l.513-3.28a4.002 4.002 0 0 0-3.953-4.617H13.674a4 4 0 0 0-3.953 4.617z" opacity="1" data-original="#e9f3fc"></path><g fill="#347bfa"><path d="M29.715 53.464a2 2 0 0 0-2-2h-8a2 2 0 0 0-2 2v2a2 2 0 0 0 2 2h8a2 2 0 0 0 2-2v-2zM23.557 25.826a5.277 5.277 0 0 1-.064-.834 1 1 0 0 0-2-.008 7.1 7.1 0 0 0 .089 1.153 1 1 0 1 0 1.975-.311zM24.607 21.993c.196-.23.416-.446.66-.648a1 1 0 0 0-1.275-1.541 7.373 7.373 0 0 0-.908.892 1 1 0 0 0 1.523 1.297zM28.376 19.902c.404-.091.83-.159 1.277-.204a1 1 0 0 0-.199-1.99c-.53.053-1.036.135-1.516.243a1 1 0 1 0 .438 1.951zM33.495 19.694c.61.016 1.189.011 1.741-.012a1 1 0 0 0-.084-1.998c-.509.021-1.044.025-1.606.011a1 1 0 0 0-.051 1.999zM39.368 19.055c.645-.187 1.227-.41 1.749-.66a1.001 1.001 0 0 0-.866-1.803c-.43.206-.909.388-1.441.543a1 1 0 0 0 .558 1.92zM44.122 15.939a6.17 6.17 0 0 0 .962-2.144 1.001 1.001 0 0 0-1.947-.456c-.117.498-.329.99-.653 1.452a1.001 1.001 0 0 0 1.638 1.148zM44.715 9.783c-.443-1.033-1.137-1.903-1.961-2.471a1 1 0 0 0-1.136 1.646c.535.369.972.944 1.259 1.614a1 1 0 1 0 1.838-.789z" fill="#347bfa" opacity="1" data-original="#347bfa"></path></g><path fill="#cadcf0" d="M31.891 6.831c1.082-6.127 10.459-5.731 5 0zM31.891 8.383c1.082 6.126 10.459 5.731 5 0z" opacity="1" data-original="#cadcf0" class=""></path><path fill="#347bfa" d="M31.801 8.617h6.696a1 1 0 0 0 0-2h-6.696a1.001 1.001 0 0 0 0 2z" opacity="1" data-original="#347bfa"></path></g></svg>